<svg xmlns="http://www.w3.org/2000/svg" width="14" height="14" viewBox="0 0 14 14">
  <path id="External_link_icon" data-name="External link icon" d="M10.5-3.5a.875.875,0,0,0-.875.875V0H1.75V-7.875H4.375A.875.875,0,0,0,5.25-8.75a.875.875,0,0,0-.875-.875H1.75A1.75,1.75,0,0,0,0-7.875V0A1.75,1.75,0,0,0,1.75,1.75H9.625A1.75,1.75,0,0,0,11.375,0V-2.625A.874.874,0,0,0,10.5-3.5Zm3.243-8.494a.873.873,0,0,0-.618-.256H8.75a.849.849,0,0,0-.85.85.854.854,0,0,0,.875.85h2.263L4.886-4.3a.875.875,0,0,0,0,1.238.875.875,0,0,0,1.239,0l6.125-6.2V-7a.849.849,0,0,0,.85.85A.891.891,0,0,0,14-7v-4.4A.859.859,0,0,0,13.743-11.994Z" transform="translate(0 12.25)" fill="#fff"/>
</svg>
